<svg version="1.1" xmlns="http://www.w3.org/2000/svg" xmlns:xlink="http://www.w3.org/1999/xlink" width="48" height="48"><defs><linearGradient x1="13.76468" y1="15.81174" x2="56.45861" y2="54.41154" gradientUnits="userSpaceOnUse" id="color-1"><stop offset="0" stop-color="#000000" stop-opacity="0.15"></stop><stop offset="1" stop-color="#000000" stop-opacity="0"></stop></linearGradient><filter id="dropshadow-base"><feColorMatrix type="matrix" values="0 0 0 0 0  0 0 0 0 0  0 0 0 0 0  0 0 0 .8 0"></feColorMatrix> <feOffset dx="0" dy="1"></feOffset> <feGaussianBlur stdDeviation="1"></feGaussianBlur> <feComposite in="SourceGraphic"></feComposite></filter><filter id="dropshadow-banner" x="-10%" y="-10%" width="120%" height="130%"><feColorMatrix type="matrix" values="0 0 0 0 0  0 0 0 0 0  0 0 0 0 0  0 0 0 .4 0"></feColorMatrix> <feOffset dx="0" dy="1"></feOffset> <feGaussianBlur stdDeviation="0.5"></feGaussianBlur> <feComposite in="SourceGraphic"></feComposite></filter></defs><g fill="none" fill-rule="nonzero" stroke="none" stroke-width="none" stroke-linecap="butt" stroke-linejoin="miter" stroke-miterlimit="10" stroke-dasharray="" stroke-dashoffset="0" font-family="none" font-weight="none" font-size="none" text-anchor="none" style="mix-blend-mode: normal"><path d="M2,24c0,-12.15026 9.84974,-22 22,-22c12.15026,0 22,9.84974 22,22c0,12.15026 -9.84974,22 -22,22c-12.15026,0 -22,-9.84974 -22,-22z" id="base 1 5" fill="#329b9e" stroke-width="1"></path><path d="M14.366,31.58693c-0.37103,-0.37103 -0.60133,-0.8828 -0.60133,-1.44574l0.01024,-12.28238c0,-1.12589 0.91094,-2.04706 2.03683,-2.04706h1.02353l3.0706,3.0706l2.04706,0l-2.04706,-3.0706h2.04706l3.0706,3.0706l2.04706,0l-2.04706,-3.0706h2.04706l3.0706,3.0706l2.04706,0l-2.04706,-3.0706h4.09413l11.51482,11.51482c-1.38681,9.14336 -8.40155,16.43899 -17.4009,18.2436z" fill="url(#color-1)" stroke-width="1"></path><path d="M30.14119,15.81174l2.04706,3.0706h-3.0706l-2.04706,-3.0706h-2.04706l2.04706,3.0706h-3.0706l-2.04706,-3.0706h-2.04706l2.04706,3.0706h-3.0706l-2.04706,-3.0706h-1.02353c-1.12589,0 -2.03683,0.92118 -2.03683,2.04706l-0.01024,12.28238c0,1.12589 0.92118,2.04706 2.04706,2.04706h16.37651c1.12589,0 2.04706,-0.92118 2.04706,-2.04706v-14.32945zM23.23235,27.32648l-1.27942,2.81471l-1.27942,-2.81471l-2.81471,-1.27942l2.81471,-1.27942l1.27942,-2.81471l1.27942,2.81471l2.81471,1.27942zM29.05625,23.93859l-0.96212,2.10848l-0.96212,-2.10848l-2.10848,-0.96212l2.10848,-0.96212l0.96212,-2.10848l0.96212,2.10848l2.10848,0.96212z" fill="none" stroke-width="0"></path><path d="M34.23532,15.81174v14.32945c0,1.12589 -0.92118,2.04706 -2.04706,2.04706h-16.37651c-1.12589,0 -2.04706,-0.92118 -2.04706,-2.04706l0.01024,-12.28238c0,-1.12589 0.91094,-2.04706 2.03683,-2.04706h1.02353l2.04706,3.0706h3.0706l-2.04706,-3.0706h2.04706l2.04706,3.0706h3.0706l-2.04706,-3.0706h2.04706l2.04706,3.0706h3.0706l-2.04706,-3.0706zM26.04706,26.04706l-2.81471,-1.27942l-1.27942,-2.81471l-1.27942,2.81471l-2.81471,1.27942l2.81471,1.27942l1.27942,2.81471l1.27942,-2.81471zM31.16472,22.97647l-2.10848,-0.96212l-0.96212,-2.10848l-0.96212,2.10848l-2.10848,0.96212l2.10848,0.96212l0.96212,2.10848l0.96212,-2.10848z" fill="#ffc83a" stroke-width="0"></path><path d="M2,24c0,-12.15026 9.84974,-22 22,-22c12.15026,0 22,9.84974 22,22c0,12.15026 -9.84974,22 -22,22c-12.15026,0 -22,-9.84974 -22,-22z" id="base 1 1 1" fill="none" stroke-width="1"></path><g fill="#000000" stroke-width="1" font-family="Roboto, sans-serif" font-weight="400" font-size="14" text-anchor="start"></g><rect x="2" y="2" width="44" height="22" fill="none" stroke-width="1"></rect><path d="M2,24v-22h44v22z" fill="none" stroke-width="1"></path><path d="M2,24v-22h44v22z" fill="none" stroke-width="1"></path><path d="M2,24v-22h44v22z" fill="none" stroke-width="1"></path><path d="M2,24v-22h44v22z" fill="none" stroke-width="1"></path></g></svg>